<?xml version="1.0" encoding="utf-8"?>
<svg  viewBox="0 0 56 34" version="1.1" xmlns:xlink="http://www.w3.org/1999/xlink" xmlns="http://www.w3.org/2000/svg">
  <path d="M22.757 17.0002C22.757 7.6263 30.2135 0 39.3787 0C48.5439 0 56 7.6263 56 17.0002C56 26.3741 48.5439 34 39.3787 34C33.5154 34 28.3551 30.8761 25.3956 26.173C23.2583 30.7947 18.6565 34 13.3354 34C5.98212 34 0 27.8817 0 20.361C0 12.8406 5.98212 6.7223 13.3354 6.7223C14.3606 6.7223 15.1919 7.57214 15.1919 8.62109C15.1919 9.67003 14.3606 10.5203 13.3354 10.5203C8.0295 10.5203 3.7134 14.935 3.7134 20.361C3.7134 25.7873 8.0295 30.202 13.3354 30.202C18.6405 30.202 22.957 25.7873 22.957 20.361C22.957 19.9701 22.9341 19.5766 22.8899 19.1904C22.8831 19.1335 22.88 19.0767 22.8785 19.0205C22.8012 18.3574 22.757 17.684 22.757 17.0002ZM26.4705 17.0001C26.4705 24.2796 32.2609 30.2019 39.3788 30.2019C46.4962 30.2019 52.2867 24.2796 52.2867 17.0001C52.2867 9.72058 46.4962 3.79785 39.3788 3.79785C32.2609 3.79785 26.4705 9.72058 26.4705 17.0001Z" fill-rule="evenodd"  stroke="none" />
  <path d="M3.5 0C2.98747 0 2.50211 0.0967742 2.0633 0.266378C2.14245 0.460259 2.18745 0.667775 2.18745 0.884935C2.18745 1.9162 1.21555 2.75291 0.0143554 2.75923C0.0069837 2.83904 0 2.91886 0 3C0 4.6568 1.56707 6 3.5 6C5.43293 6 7 4.6568 7 3C7 1.3432 5.43293 0 3.5 0" transform="translate(9 16)"   stroke="none" />
  <path d="M7.0002 0C5.97473 0 5.00393 0.226102 4.12647 0.622075C4.28462 1.07428 4.37483 1.55851 4.37483 2.06499C4.37483 4.47167 2.43168 6.42303 0.0285069 6.43826C0.0136677 6.62414 0 6.81041 0 6.9998C0 10.8658 3.13419 14 7.0002 14C10.8658 14 14 10.8658 14 6.9998C14 3.1338 10.8658 0 7.0002 0" transform="translate(33 9)"  stroke="none" />
</svg>