<?xml version="1.0" encoding="utf-8"?>
<svg  viewBox="0 0 32 26" version="1.1" xmlns:xlink="http://www.w3.org/1999/xlink" xmlns="http://www.w3.org/2000/svg">
  <path d="M31.2801 2.66557L30.92 2.66557C30.7106 1.16186 29.4093 0 27.8392 0C26.1238 0 24.7281 1.38668 24.7281 3.0911L24.7281 15.8974C24.7281 20.6792 20.8127 24.5694 16.0001 24.5694C11.1875 24.5694 7.27207 20.6792 7.27207 15.8974L7.27207 3.0911C7.27207 1.38668 5.87643 0 4.16093 0C2.59085 0 1.28945 1.16186 1.0801 2.66557L0.719921 2.66557C0.322381 2.66557 0 2.98581 0 3.38087C0 3.77593 0.322381 4.09618 0.719921 4.09618L1.04979 4.09618L1.04979 7.55301C1.04979 7.94807 1.37217 8.26832 1.76971 8.26832C2.16725 8.26832 2.48963 7.94807 2.48963 7.55301L2.48963 4.09618L2.8195 4.09618C3.21704 4.09618 3.53942 3.77593 3.53942 3.38087C3.53942 2.98581 3.21704 2.66557 2.8195 2.66557L2.5455 2.66557C2.73513 1.95549 3.38737 1.4306 4.16086 1.4306C5.08243 1.4306 5.83215 2.17552 5.83215 3.0911L5.83215 15.8974C5.83215 21.468 10.3934 26 16 26C21.6066 26 26.1679 21.468 26.1679 15.8974L26.1679 3.0911C26.1679 2.17552 26.9176 1.4306 27.8391 1.4306C28.6126 1.4306 29.2648 1.95549 29.4545 2.66557L29.1806 2.66557C28.783 2.66557 28.4607 2.98581 28.4607 3.38087C28.4607 3.77593 28.783 4.09618 29.1806 4.09618L29.5104 4.09618L29.5104 7.55301C29.5104 7.94807 29.8327 8.26832 30.2303 8.26832C30.6278 8.26832 30.9502 7.94807 30.9502 7.55301L30.9502 4.09618L31.2801 4.09618C31.6776 4.09618 32 3.77593 32 3.38087C32 2.98581 31.6777 2.66557 31.2801 2.66557Z"  stroke="none" />
</svg>