<?xml version="1.0" encoding="utf-8"?>
<svg  viewBox="0 0 48 36" version="1.1" xmlns:xlink="http://www.w3.org/1999/xlink" xmlns="http://www.w3.org/2000/svg">
  <g id="indent-all">
    <path d="M22.9978 0L1.00219 0C0.448246 0 0 0.447267 0 1C0 1.55273 0.448246 2 1.00219 2L22.9978 2C23.5518 2 24 1.55273 24 1C24 0.447267 23.5518 0 22.9978 0Z" transform="translate(24 12)"  stroke="none" />
    <path d="M23 0L1.00003 0C0.44728 0 0 0.447267 0 1C0 1.55273 0.44728 2 1.00003 2L23 2C23.5527 2 24 1.55273 24 1C24 0.447267 23.5527 0 23 0Z" transform="translate(24 21)"  stroke="none" />
    <path d="M23 0L1.00003 0C0.44728 0 0 0.447267 0 1C0 1.55273 0.44728 2 1.00003 2L23 2C23.5527 2 24 1.55273 24 1C24 0.447174 23.5527 0 23 0Z" transform="translate(24 32)"  stroke="none" />
    <path d="M1.00003 2L23 2C23.5527 2 24 1.55273 24 1C24 0.447267 23.5527 0 23 0L1.00003 0C0.44728 0 0 0.447267 0 1C0 1.55273 0.44728 2 1.00003 2Z" transform="translate(24 2)"  stroke="none" />
    <path d="M13.5996 9.19963L1.59984 0.199165C1.16035 -0.129915 0.532521 -0.043004 0.200466 0.399331C-0.13159 0.840729 -0.0416857 1.46776 0.400618 1.79881L11.3331 9.99945L0.400618 18.2001C-0.0417794 18.5311 -0.13159 19.1582 0.200466 19.5996C0.396774 19.8623 0.696581 20 1.00126 20C1.21023 20 1.42022 19.9346 1.59984 19.7998L13.5996 10.7994C13.8516 10.6109 14 10.314 14 9.99955C14 9.685 13.8516 9.38808 13.5996 9.19963Z" transform="translate(0 8)"  stroke="none" />
    <path d="M1 0C0.447267 0 0 0.44728 0 1.00003L0 35C0 35.5527 0.447267 36 1 36C1.55273 36 2 35.5527 2 35L2 1.00003C2 0.44728 1.55273 0 1 0Z" transform="translate(18 0)" stroke="none" />
  </g>
</svg>