<?xml version="1.0" encoding="utf-8"?>
<svg  viewBox="0 0 32 47" version="1.1" xmlns:xlink="http://www.w3.org/1999/xlink" xmlns="http://www.w3.org/2000/svg">
  <path d="M30.5455 44.0625L27.6364 44.0625L27.6364 33.7813C27.6364 28.103 23.0778 23.5 17.4545 23.5C23.0778 23.5 27.6364 18.897 27.6364 13.2188L27.6364 2.9375L30.5455 2.9375C31.3484 2.9375 32 2.2795 32 1.46875C32 0.658 31.3484 0 30.5455 0L1.45455 0C0.651636 0 0 0.658 0 1.46875C0 2.2795 0.651636 2.9375 1.45455 2.9375L4.36364 2.9375L4.36364 13.2188C4.36364 18.897 8.92215 23.5 14.5455 23.5C8.92215 23.5 4.36364 28.103 4.36364 33.7813L4.36364 44.0625L1.45455 44.0625C0.651636 44.0625 0 44.7205 0 45.5313C0 46.342 0.651636 47 1.45455 47L30.5455 47C31.3484 47 32 46.342 32 45.5313C32 44.7205 31.3484 44.0625 30.5455 44.0625ZM6.27271 2.9707L6.27271 13.7806C6.27271 18.0443 10.0686 21.502 14.7492 21.502L17.1711 21.502C21.8518 21.502 25.6477 18.0443 25.6477 13.7806L25.6477 2.9707L6.27271 2.9707ZM7.58051 44L6.31335 44L6.31335 33.1901C6.31335 28.9264 10.1092 25.4688 14.7899 25.4688L17.2118 25.4688C21.8924 25.4688 25.6884 28.9264 25.6884 33.1901C25.6883 35.6748 25.6883 44 25.6883 44L24.4211 44C24.4211 44 24.4211 36.3627 24.4211 34.0833C24.4211 30.1719 21.1218 27 17.0534 27L14.9483 27C10.8798 27 7.58051 30.1719 7.58051 34.0833L7.58051 44Z"   fill-rule="evenodd" stroke="none" />
</svg>