<?xml version="1.0" encoding="utf-8"?>
<svg  viewBox="0 0 46 47" version="1.1" xmlns:xlink="http://www.w3.org/1999/xlink" xmlns="http://www.w3.org/2000/svg">
  <g id="sticker">
    <path d="M44.4092 22.4226C44.0151 22.9709 44.0247 23.7116 44.4189 24.2503L45.2456 25.4142C45.909 26.3185 46.1493 27.4728 45.909 28.5694C45.6686 29.666 44.9668 30.6087 43.9863 31.157L42.7461 31.8496C42.1597 32.167 41.8424 32.8307 41.9674 33.4945L42.227 34.8893C42.4289 35.9955 42.1501 37.1306 41.4579 38.0156C40.7657 38.9005 39.7275 39.4392 38.6027 39.5065L37.1895 39.5835C36.5262 39.622 35.9494 40.0837 35.7763 40.7282L35.4014 42.0941C34.94 43.7968 33.3826 44.9799 31.6233 44.9799C31.1138 44.9799 30.6139 44.8741 30.1332 44.6817L28.8162 44.1431C28.2009 43.893 27.4703 44.0661 27.0377 44.5663L26.1148 45.6533C25.3649 46.5094 24.2882 47 23.1538 47C22.0483 47 20.9812 46.5287 20.2409 45.7014L19.2892 44.6433C18.8566 44.1527 18.1163 43.9892 17.5107 44.2489L16.2033 44.8068C15.713 45.0184 15.1842 45.1242 14.6555 45.1242C12.9154 45.1242 11.3677 43.9603 10.887 42.2962L10.4928 40.9302C10.3102 40.2857 9.73338 39.8336 9.06044 39.8047L7.63764 39.747C6.52247 39.6989 5.4746 39.1699 4.76321 38.2945C4.06142 37.4192 3.7634 36.2841 3.94606 35.1779L4.1864 33.7734C4.29214 33.1097 3.9749 32.4556 3.37886 32.1381L2.12911 31.4648C1.13892 30.9261 0.427521 30.0027 0.167957 28.9061C-0.0916077 27.8095 0.139116 26.6551 0.78322 25.7413L1.60037 24.5774C1.99452 24.0291 1.98491 23.2884 1.59075 22.7497L0.75438 21.605C0.0910487 20.7008 -0.149289 19.5465 0.0910487 18.4499C0.331386 17.3533 1.03317 16.4106 2.01375 15.8623L3.25389 15.1697C3.84031 14.8426 4.15756 14.1789 4.03258 13.5151L3.77302 12.1203C3.57113 11.0141 3.84992 9.87904 4.5421 8.99407C5.23427 8.10909 6.27252 7.57041 7.3973 7.50307L8.81049 7.4165C9.47382 7.37802 10.0506 6.91629 10.2237 6.2718L10.5986 4.90585C11.06 3.20323 12.6174 2.02006 14.3767 2.02006C14.8862 2.02006 15.3861 2.12587 15.8668 2.31826L17.1838 2.85694C17.7991 3.10704 18.5297 2.93389 18.9623 2.43369L19.8852 1.3467C20.6351 0.490585 21.7118 0 22.8462 0C23.9517 0 25.0188 0.480966 25.7591 1.30823L26.7108 2.36635C27.1434 2.85694 27.8837 3.02047 28.4893 2.76075L29.7967 2.20282C30.287 1.9912 30.8158 1.88539 31.3445 1.88539C33.0846 1.88539 34.6323 3.04932 35.113 4.71347L35.5072 6.07941C35.6898 6.72391 36.2666 7.17601 36.9396 7.20487L38.372 7.25297C39.4871 7.30106 40.535 7.83013 41.2464 8.70549C41.9482 9.58084 42.2462 10.7159 42.0636 11.8221L41.8232 13.2266C41.7175 13.8903 42.0347 14.5444 42.6307 14.8619L43.8805 15.5352C44.8707 16.0643 45.5821 16.9973 45.8417 18.0939C46.1012 19.1905 45.8705 20.3449 45.2264 21.2587L44.4092 22.4226ZM42.8519 29.0794C43.246 28.8582 43.5248 28.4926 43.621 28.0501C43.7171 27.598 43.621 27.1555 43.3902 26.79L42.5539 25.6453C41.5541 24.2794 41.5444 22.4421 42.5154 21.0665L43.3326 19.9026C43.5921 19.537 43.6786 19.0849 43.5729 18.6424C43.4671 18.2 43.1884 17.8344 42.7846 17.6228L41.5348 16.9494C40.0447 16.151 39.2372 14.5061 39.516 12.842L39.7467 11.4376C39.8236 10.9951 39.7083 10.5526 39.4199 10.1967C39.1411 9.84076 38.7277 9.63876 38.2759 9.61952L36.8531 9.5618C35.1707 9.48485 33.7287 8.34977 33.2576 6.73372L32.8635 5.36778C32.6712 4.70405 32.0559 4.24232 31.3638 4.24232C31.1523 4.24232 30.9504 4.2808 30.7485 4.36737L29.4411 4.92529C28.9508 5.13692 28.4316 5.24273 27.8933 5.24273C26.7781 5.24273 25.711 4.76176 24.9708 3.9345L24.0191 2.87638C23.721 2.5397 23.3077 2.35693 22.8558 2.35693C22.3944 2.35693 21.9714 2.54932 21.6734 2.89562L20.7409 3.96336C19.991 4.81948 18.9143 5.31007 17.7799 5.31007C17.2704 5.31007 16.7705 5.20425 16.2898 5.01187L14.9728 4.47318C14.7805 4.39623 14.5786 4.35775 14.3767 4.35775C13.6749 4.35775 13.0501 4.83872 12.8674 5.51207L12.4925 6.88763C12.0406 8.5133 10.6178 9.66762 8.93548 9.76381L7.5223 9.85038C7.07047 9.87924 6.6667 10.0909 6.38791 10.4468C6.10912 10.8027 5.99376 11.2452 6.08028 11.6973L6.33023 13.0729C6.63786 14.7274 5.84955 16.3915 4.37869 17.2092L3.13855 17.9018C2.7444 18.123 2.4656 18.4885 2.36947 18.931C2.26372 19.3735 2.35986 19.8256 2.62903 20.1912L3.46541 21.3359C4.46521 22.7018 4.47482 24.5391 3.50386 25.9146L2.68672 27.0786C2.42715 27.4441 2.34063 27.8962 2.44638 28.3387C2.54251 28.7812 2.8213 29.1467 3.22507 29.3584L4.47482 30.0317C5.96492 30.8301 6.77245 32.475 6.49366 34.1392L6.25332 35.5436C6.17641 35.9861 6.29177 36.4286 6.58018 36.7845C6.85897 37.1404 7.27235 37.3424 7.72418 37.3616L9.14698 37.4194C10.8293 37.4963 12.2714 38.6314 12.7424 40.2474L13.1366 41.6134C13.3289 42.2771 13.9441 42.7388 14.6363 42.7388C14.8478 42.7388 15.0497 42.7004 15.2515 42.6138L16.559 42.0559C17.0493 41.8442 17.5684 41.7384 18.1068 41.7384C19.2219 41.7384 20.289 42.2194 21.0293 43.0467L21.981 44.1048C22.279 44.4415 22.6924 44.6242 23.1442 44.6242C23.6057 44.6242 24.0287 44.4318 24.3267 44.0855L25.2592 43.0178C26.009 42.1617 27.0858 41.6711 28.2201 41.6711C28.7297 41.6711 29.2296 41.7769 29.7102 41.9693L31.0273 42.508C31.2196 42.5849 31.4214 42.6234 31.6233 42.6234C32.3251 42.6234 32.95 42.1521 33.1326 41.4691L33.5076 40.1031C33.9594 38.4775 35.3822 37.3232 37.0646 37.227L38.4777 37.15C38.9296 37.1212 39.3333 36.9095 39.6121 36.5536C39.8909 36.1977 40.0063 35.7456 39.9198 35.3031L39.6602 33.9083C39.3526 32.2538 40.1409 30.5896 41.6117 29.772L42.8519 29.0794Z"  fill-rule="evenodd" stroke="none" />
    <path d="M0 14.5C0 6.50431 6.7286 0 15 0C23.2714 0 30 6.50431 30 14.5C30 22.4957 23.2714 29 15 29C6.7286 29 0 22.4957 0 14.5ZM2.4386 14.5001C2.4386 21.1968 8.07231 26.6428 15 26.6428C21.9277 26.6428 27.5614 21.1968 27.5614 14.5001C27.5614 7.80334 21.9277 2.35742 15 2.35742C8.07231 2.35742 2.4386 7.80334 2.4386 14.5001Z" transform="translate(8 9)" fill-rule="evenodd" stroke="none" />
  </g>
</svg>